<svg viewBox="0 0 800 200" xmlns="http://www.w3.org/2000/svg">
  <rect width="800" height="200" fill="transparent"/>

  <!-- Constellation lines -->
  <g stroke="#58a6ff" stroke-width="0.5" opacity="0.3">
    <line x1="73.2" y1="117.4" x2="104.3" y2="118.7"/>
    <line x1="104.3" y1="118.7" x2="195.7" y2="128.1"/>
    <line x1="104.3" y1="118.7" x2="238.5" y2="103.1"/>
    <line x1="195.7" y1="128.1" x2="238.5" y2="103.1"/>
    <line x1="238.5" y1="103.1" x2="290.2" y2="95.8"/>
    <line x1="238.5" y1="103.1" x2="377.2" y2="125.3"/>
    <line x1="290.2" y1="95.8" x2="377.2" y2="125.3"/>
    <line x1="377.2" y1="125.3" x2="427.0" y2="53.4"/>
    <line x1="377.2" y1="125.3" x2="482.0" y2="109.7"/>
    <line x1="427.0" y1="53.4" x2="482.0" y2="109.7"/>
    <line x1="427.0" y1="53.4" x2="554.9" y2="55.1"/>
    <line x1="482.0" y1="109.7" x2="554.9" y2="55.1"/>
    <line x1="554.9" y1="55.1" x2="605.5" y2="115.0"/>
    <line x1="554.9" y1="55.1" x2="691.2" y2="89.1"/>
    <line x1="605.5" y1="115.0" x2="691.2" y2="89.1"/>
    <line x1="691.2" y1="89.1" x2="758.6" y2="68.5"/>
    <line x1="554.9" y1="55.1" x2="691.2" y2="89.1"/>
    <line x1="482.0" y1="109.7" x2="605.5" y2="115.0"/>
  </g>

  <!-- Constellation points -->
  <g fill="#58a6ff">
    <circle cx="73.2" cy="117.4" r="3.4" opacity="0.67"/>
    <circle cx="104.3" cy="118.7" r="4.7" opacity="0.68"/>
    <circle cx="195.7" cy="128.1" r="3.2" opacity="0.63"/>
    <circle cx="238.5" cy="103.1" r="2.8" opacity="0.66"/>
    <circle cx="290.2" cy="95.8" r="4.0" opacity="0.62"/>
    <circle cx="377.2" cy="125.3" r="4.3" opacity="0.76"/>
    <circle cx="427.0" cy="53.4" r="4.0" opacity="0.85"/>
    <circle cx="482.0" cy="109.7" r="4.8" opacity="0.68"/>
    <circle cx="554.9" cy="55.1" r="3.2" opacity="0.62"/>
    <circle cx="605.5" cy="115.0" r="2.1" opacity="0.80"/>
    <circle cx="691.2" cy="89.1" r="5.0" opacity="0.59"/>
    <circle cx="758.6" cy="68.5" r="4.2" opacity="0.74"/>
  </g>

  <!-- Subtle glows -->
  <g fill="#58a6ff" opacity="0.08">
    <circle cx="104.3" cy="118.7" r="18.7"/>
    <circle cx="290.2" cy="95.8" r="16.2"/>
    <circle cx="377.2" cy="125.3" r="17.0"/>
    <circle cx="427.0" cy="53.4" r="16.1"/>
    <circle cx="482.0" cy="109.7" r="19.4"/>
    <circle cx="691.2" cy="89.1" r="19.9"/>
    <circle cx="758.6" cy="68.5" r="16.8"/>
  </g>
</svg>