<svg viewBox="0 0 800 200" xmlns="http://www.w3.org/2000/svg">
  <rect width="800" height="200" fill="transparent"/>

  <!-- Constellation lines -->
  <g stroke="#58a6ff" stroke-width="0.5" opacity="0.3">
    <line x1="57.0" y1="105.3" x2="102.6" y2="105.7"/>
    <line x1="57.0" y1="105.3" x2="189.9" y2="149.4"/>
    <line x1="102.6" y1="105.7" x2="189.9" y2="149.4"/>
    <line x1="102.6" y1="105.7" x2="246.5" y2="123.8"/>
    <line x1="189.9" y1="149.4" x2="246.5" y2="123.8"/>
    <line x1="246.5" y1="123.8" x2="311.5" y2="134.3"/>
    <line x1="311.5" y1="134.3" x2="379.0" y2="53.0"/>
    <line x1="379.0" y1="53.0" x2="438.1" y2="70.6"/>
    <line x1="379.0" y1="53.0" x2="504.4" y2="89.1"/>
    <line x1="438.1" y1="70.6" x2="504.4" y2="89.1"/>
    <line x1="504.4" y1="89.1" x2="550.9" y2="62.8"/>
    <line x1="550.9" y1="62.8" x2="632.8" y2="111.8"/>
    <line x1="632.8" y1="111.8" x2="671.1" y2="140.2"/>
    <line x1="671.1" y1="140.2" x2="742.5" y2="110.2"/>
    <line x1="189.9" y1="149.4" x2="379.0" y2="53.0"/>
    <line x1="102.6" y1="105.7" x2="246.5" y2="123.8"/>
  </g>

  <!-- Constellation points -->
  <g fill="#58a6ff">
    <circle cx="57.0" cy="105.3" r="3.8" opacity="0.84"/>
    <circle cx="102.6" cy="105.7" r="3.3" opacity="0.55"/>
    <circle cx="189.9" cy="149.4" r="6.2" opacity="0.58"/>
    <circle cx="246.5" cy="123.8" r="6.5" opacity="0.55"/>
    <circle cx="311.5" cy="134.3" r="2.4" opacity="0.66"/>
    <circle cx="379.0" cy="53.0" r="2.9" opacity="0.86"/>
    <circle cx="438.1" cy="70.6" r="4.5" opacity="0.55"/>
    <circle cx="504.4" cy="89.1" r="4.0" opacity="0.70"/>
    <circle cx="550.9" cy="62.8" r="3.3" opacity="0.80"/>
    <circle cx="632.8" cy="111.8" r="2.8" opacity="0.81"/>
    <circle cx="671.1" cy="140.2" r="5.0" opacity="0.75"/>
    <circle cx="742.5" cy="110.2" r="3.8" opacity="0.59"/>
  </g>

  <!-- Subtle glows -->
  <g fill="#58a6ff" opacity="0.08">
    <circle cx="57.0" cy="105.3" r="15.3"/>
    <circle cx="189.9" cy="149.4" r="24.9"/>
    <circle cx="246.5" cy="123.8" r="26.0"/>
    <circle cx="438.1" cy="70.6" r="17.8"/>
    <circle cx="504.4" cy="89.1" r="15.9"/>
    <circle cx="671.1" cy="140.2" r="20.0"/>
    <circle cx="742.5" cy="110.2" r="15.4"/>
  </g>
</svg>